<svg id="visual" viewBox="0 0 900 50" width="900" height="50" xmlns="http://www.w3.org/2000/svg" xmlns:xlink="http://www.w3.org/1999/xlink" version="1.1"><path d="M0 11L21.5 11.7C43 12.3 86 13.7 128.8 14.3C171.7 15 214.3 15 257.2 13.8C300 12.7 343 10.3 385.8 9.7C428.7 9 471.3 10 514.2 10.8C557 11.7 600 12.3 642.8 11.3C685.7 10.3 728.3 7.7 771.2 8.3C814 9 857 13 878.5 15L900 17L900 51L878.5 51C857 51 814 51 771.2 51C728.3 51 685.7 51 642.8 51C600 51 557 51 514.2 51C471.3 51 428.7 51 385.8 51C343 51 300 51 257.2 51C214.3 51 171.7 51 128.8 51C86 51 43 51 21.5 51L0 51Z" fill="#001433"></path><path d="M0 17L21.5 18.8C43 20.7 86 24.3 128.8 24.2C171.7 24 214.3 20 257.2 19.2C300 18.3 343 20.7 385.8 20.5C428.7 20.3 471.3 17.7 514.2 16.2C557 14.7 600 14.3 642.8 14.2C685.7 14 728.3 14 771.2 15.3C814 16.7 857 19.3 878.5 20.7L900 22L900 51L878.5 51C857 51 814 51 771.2 51C728.3 51 685.7 51 642.8 51C600 51 557 51 514.2 51C471.3 51 428.7 51 385.8 51C343 51 300 51 257.2 51C214.3 51 171.7 51 128.8 51C86 51 43 51 21.5 51L0 51Z" fill="#002f72"></path><path d="M0 24L21.5 24.5C43 25 86 26 128.8 25.8C171.7 25.7 214.3 24.3 257.2 24C300 23.7 343 24.3 385.8 24.3C428.7 24.3 471.3 23.7 514.2 25.5C557 27.3 600 31.7 642.8 32C685.7 32.3 728.3 28.7 771.2 28.5C814 28.3 857 31.7 878.5 33.3L900 35L900 51L878.5 51C857 51 814 51 771.2 51C728.3 51 685.7 51 642.8 51C600 51 557 51 514.2 51C471.3 51 428.7 51 385.8 51C343 51 300 51 257.2 51C214.3 51 171.7 51 128.8 51C86 51 43 51 21.5 51L0 51Z" fill="#004bb7"></path><path d="M0 46L21.5 43.7C43 41.3 86 36.7 128.8 36.3C171.7 36 214.3 40 257.2 41.5C300 43 343 42 385.8 41.3C428.7 40.7 471.3 40.3 514.2 39.5C557 38.7 600 37.3 642.8 36.7C685.7 36 728.3 36 771.2 37.5C814 39 857 42 878.5 43.5L900 45L900 51L878.5 51C857 51 814 51 771.2 51C728.3 51 685.7 51 642.8 51C600 51 557 51 514.2 51C471.3 51 428.7 51 385.8 51C343 51 300 51 257.2 51C214.3 51 171.7 51 128.8 51C86 51 43 51 21.5 51L0 51Z" fill="#0066ff"></path></svg>