<svg id="visual" viewBox="0 0 900 50" width="900" height="50" xmlns="http://www.w3.org/2000/svg" xmlns:xlink="http://www.w3.org/1999/xlink" version="1.1"><rect x="0" y="0" width="900" height="50" fill="#002233"></rect><path d="M0 30L30 25.5C60 21 120 12 180 7.3C240 2.7 300 2.3 360 4.8C420 7.3 480 12.7 540 19.7C600 26.7 660 35.3 720 32.3C780 29.3 840 14.7 870 7.3L900 0L900 0L870 0C840 0 780 0 720 0C660 0 600 0 540 0C480 0 420 0 360 0C300 0 240 0 180 0C120 0 60 0 30 0L0 0Z" fill="#0066FF" stroke-linecap="round" stroke-linejoin="miter"></path></svg>