<svg id="visual" viewBox="0 0 900 50" width="900" height="50" xmlns="http://www.w3.org/2000/svg" xmlns:xlink="http://www.w3.org/1999/xlink" version="1.1"><rect x="0" y="0" width="900" height="50" fill="#002233"></rect><path d="M0 15L30 19.5C60 24 120 33 180 37.3C240 41.7 300 41.3 360 35.5C420 29.7 480 18.3 540 18.2C600 18 660 29 720 33.2C780 37.3 840 34.7 870 33.3L900 32L900 51L870 51C840 51 780 51 720 51C660 51 600 51 540 51C480 51 420 51 360 51C300 51 240 51 180 51C120 51 60 51 30 51L0 51Z" fill="#0066FF" stroke-linecap="round" stroke-linejoin="miter"></path></svg>